<?xml version="1.0" encoding="utf-8"?>
<!-- Generator: Adobe Illustrator 20.0.0, SVG Export Plug-In . SVG Version: 6.00 Build 0)  -->
<svg version="1.1" id="Layer_1" xmlns="http://www.w3.org/2000/svg" xmlns:xlink="http://www.w3.org/1999/xlink" x="0px" y="0px"
	 viewBox="0 0 190.4 222.4" style="enable-background:new 0 0 190.4 222.4;" xml:space="preserve">
<style type="text/css">
	.st0{fill:#ffffff;}
</style>
<g>
	<path class="st0" d="M0,40.6C0,18.2,18.2,0,40.6,0C63,0,81.3,18.2,81.3,40.6v141.1c0,22.4-18.2,40.6-40.6,40.6
		C18.2,222.4,0,204.1,0,181.7V40.6z M16.6,181.7c0,13.1,10.9,24,24,24c13.1,0,24-10.9,24-24V40.6c0-13.1-10.9-24-24-24
		c-13.1,0-24,10.9-24,24V181.7z"/>
	<path class="st0" d="M173.7,41.6c0-13.8-11.2-25-25-25c-13.8,0-25,11.2-25,25v28.2h-16.6V41.6c0-23,18.6-41.6,41.6-41.6
		c23,0,41.6,18.6,41.6,41.6v20.2c0,8-8.6,24.3-8.6,24.3L129.6,183c0,0-5.8,10.9-5.8,19.5h64.9v16.6h-81.6v-16.6
		c0-12.8,7.7-27.2,7.7-27.2L167,78.1c0,0,6.7-12.5,6.7-16.3V41.6z"/>
</g>
</svg>
