<?xml version="1.0" encoding="utf-8"?>
<!-- Generator: Adobe Illustrator 20.0.0, SVG Export Plug-In . SVG Version: 6.00 Build 0)  -->
<svg version="1.1" id="Layer_1" xmlns="http://www.w3.org/2000/svg" xmlns:xlink="http://www.w3.org/1999/xlink" x="0px" y="0px"
	 viewBox="0 0 190.7 222.4" style="enable-background:new 0 0 190.7 222.4;" xml:space="preserve">
<style type="text/css">
	.st0{fill:#ffffff;}
</style>
<g>
	<path class="st0" d="M0,40.6C0,18.2,18.2,0,40.6,0s40.6,18.2,40.6,40.6v141.1c0,22.4-18.2,40.6-40.6,40.6S0,204.1,0,181.7V40.6z
		 M16.6,181.7c0,13.1,10.9,24,24,24c13.1,0,24-10.9,24-24V40.6c0-13.1-10.9-24-24-24c-13.1,0-24,10.9-24,24V181.7z"/>
	<path class="st0" d="M149.1,102.7c13.8,0,25-11.2,25-25V41.6c0-13.8-11.2-25-25-25s-25,11.2-25,25v22.7h-16.6V41.6
		c0-23,18.6-41.6,41.6-41.6s41.6,18.6,41.6,41.6v36.2c0,13.8-9.6,29.1-19.8,33.3c10.2,4.5,19.8,19.8,19.8,33.3v36.5
		c0,23-18.6,41.6-41.6,41.6s-41.6-18.6-41.6-41.6v-22.7h16.6v22.7c0,13.8,11.2,25,25,25s25-11.2,25-25v-36.5c0-13.8-11.2-25-25-25
		h-4.8v-16.6H149.1z"/>
</g>
</svg>
