<?xml version="1.0" encoding="utf-8"?>
<!-- Generator: Adobe Illustrator 20.0.0, SVG Export Plug-In . SVG Version: 6.00 Build 0)  -->
<svg version="1.1" id="Layer_1" xmlns="http://www.w3.org/2000/svg" xmlns:xlink="http://www.w3.org/1999/xlink" x="0px" y="0px"
	 viewBox="0 0 198 222.4" style="enable-background:new 0 0 198 222.4;" xml:space="preserve">
<style type="text/css">
	.st0{fill:#ffffff;}
</style>
<g>
	<path class="st0" d="M0,40.6C0,18.2,18.2,0,40.6,0s40.6,18.2,40.6,40.6v141.1c0,22.4-18.2,40.6-40.6,40.6S0,204.1,0,181.7V40.6z
		 M16.6,181.7c0,13.1,10.9,24,24,24c13.1,0,24-10.9,24-24V40.6c0-13.1-10.9-24-24-24c-13.1,0-24,10.9-24,24V181.7z"/>
	<path class="st0" d="M184.3,3.2v149.4H198v16.6h-13.8v49.9h-16.6v-49.9H103v-16.6L167.7,3.2H184.3z M167.7,152.6v-111l-48,111
		H167.7z"/>
</g>
</svg>
