<?xml version="1.0" encoding="utf-8"?>
<!-- Generator: Adobe Illustrator 20.0.0, SVG Export Plug-In . SVG Version: 6.00 Build 0)  -->
<svg version="1.1" id="Layer_1" xmlns="http://www.w3.org/2000/svg" xmlns:xlink="http://www.w3.org/1999/xlink" x="0px" y="0px"
	 viewBox="0 0 192.3 222.4" style="enable-background:new 0 0 192.3 222.4;" xml:space="preserve">
<style type="text/css">
	.st0{fill:#ffffff;}
</style>
<g>
	<path class="st0" d="M0,40.6C0,18.2,18.2,0,40.6,0s40.6,18.2,40.6,40.6v141.1c0,22.4-18.2,40.6-40.6,40.6S0,204.1,0,181.7V40.6z
		 M16.6,181.7c0,13.1,10.9,24,24,24c13.1,0,24-10.9,24-24V40.6c0-13.1-10.9-24-24-24c-13.1,0-24,10.9-24,24V181.7z"/>
	<path class="st0" d="M125.7,19.8v71.3c7-5.1,15.7-8,25-8c23,0,41.6,18.6,41.6,41.6v56c0,23-18.6,41.6-41.6,41.6
		c-23,0-41.6-18.6-41.6-41.6v-21.4h16.6v21.4c0,13.8,11.2,25,25,25s25-11.2,25-25v-56c0-13.8-11.2-25-25-25
		c-12.2,0-22.4,9-24.6,20.8l-17-3.5V3.2h77.1v16.6H125.7z"/>
</g>
</svg>
