<?xml version="1.0" encoding="utf-8"?>
<!-- Generator: Adobe Illustrator 20.0.0, SVG Export Plug-In . SVG Version: 6.00 Build 0)  -->
<svg version="1.1" id="Layer_1" xmlns="http://www.w3.org/2000/svg" xmlns:xlink="http://www.w3.org/1999/xlink" x="0px" y="0px"
	 viewBox="0 0 194.5 222.4" style="enable-background:new 0 0 194.5 222.4;" xml:space="preserve">
<style type="text/css">
	.st0{fill:#ffffff;}
</style>
<g>
	<path class="st0" d="M0,40.6C0,18.2,18.2,0,40.6,0C63,0,81.3,18.2,81.3,40.6v141.1c0,22.4-18.2,40.6-40.6,40.6
		C18.2,222.4,0,204.1,0,181.7V40.6z M16.6,181.7c0,13.1,10.9,24,24,24c13.1,0,24-10.9,24-24V40.6c0-13.1-10.9-24-24-24
		c-13.1,0-24,10.9-24,24V181.7z"/>
	<path class="st0" d="M194.5,180.8c0,23-18.6,41.6-41.6,41.6s-41.6-18.6-41.6-41.6V41.6c0-23,18.6-41.6,41.6-41.6
		s41.6,18.6,41.6,41.6v19.8h-16.6V41.6c0-13.8-11.2-25-25-25s-25,11.2-25,25v55.4c7-5.1,15.7-8,25-8c23,0,41.6,18.6,41.6,41.6V180.8
		z M177.9,130.5c0-13.8-11.2-25-25-25s-25,11.2-25,25v50.2c0,13.8,11.2,25,25,25s25-11.2,25-25V130.5z"/>
</g>
</svg>
