<?xml version="1.0" encoding="utf-8"?>
<!-- Generator: Adobe Illustrator 20.0.0, SVG Export Plug-In . SVG Version: 6.00 Build 0)  -->
<svg version="1.1" id="Layer_1" xmlns="http://www.w3.org/2000/svg" xmlns:xlink="http://www.w3.org/1999/xlink" x="0px" y="0px"
	 viewBox="0 0 358.9 63" style="enable-background:new 0 0 358.9 63;" xml:space="preserve">
<style type="text/css">
	.st0{fill-rule:evenodd;clip-rule:evenodd;fill:rgb(26, 71, 186);}
</style>
<g>
	<polygon class="st0" points="356.2,47.3 338.7,30.5 355.9,15.8 358.9,13.4 344.2,13.4 343.9,13.8 327,28.2 327,6.6 327,1.4 327,0 
		325.6,0 318.9,0 317.6,0 317.6,1.4 317.6,48.3 317.6,49.6 318.9,49.6 325.6,49.6 327,49.6 327,48.3 327,32.3 344.6,49.3 345,49.6 
		358.9,49.6 	"/>
	<path class="st0" d="M297.5,13.4L297.5,13.4c-3.7,0-6.5,1-8.5,2.9c-1.9,1.9-2.9,4.7-2.9,8.4h0v23.6v1.4h1.4h6.7h1.4v-1.4V25.6h0
		c0-1.9,1.1-2.8,3.1-2.8v0h12.5h1.4v-1.4v-6.6v-1.4h-1.4H297.5z"/>
	<path class="st0" d="M233.3,16.4c-1.9-2-4.8-3-8.5-3H198h-1.4v1.4v46.9V63h1.4h6.7h1.4v-1.4v-12h0.8h1.4h5.4h11.2
		c3.7,0,6.5-1,8.4-2.9c1.9-1.9,2.9-4.7,2.9-8.4V25h0C236.2,21.2,235.2,18.4,233.3,16.4z M226.1,39.5c-0.5,0.5-1.4,0.8-2.6,0.7h0
		l-13.1,0h-4.4V22.8h16.4v0c1.6,0,2.7,0.4,3.4,1c0.7,0.6,1,1.5,1,2.9V37h0C226.9,38.1,226.6,39,226.1,39.5z"/>
	<path class="st0" d="M188.6,16.4c-2-1.9-4.8-2.9-8.5-2.9v0h-40.1h-1.4l0,1.4l0,33.5l0,1.4h1.4h6.7h1.4v-1.4V22.8h9.3v0
		c1,0,1.8,0.2,2.2,0.7c0.4,0.4,0.7,1.2,0.7,2.2h0v22.5v1.4h1.4h6.9h1.4v-1.4V22.8h9.1v0c1.1,0,1.9,0.3,2.4,0.7
		c0.5,0.5,0.7,1.2,0.7,2.3l0,22.4l0,1.4h1.4h6.8h1.4v-1.4V24.9h0C191.5,21.1,190.5,18.3,188.6,16.4z"/>
	<polygon class="st0" points="125.3,0 123.9,0 123.9,1.4 123.9,8.3 123.9,9.6 125.3,9.6 132.2,9.6 133.5,9.6 133.5,8.3 133.5,1.4 
		133.5,0 132.2,0 	"/>
	<polygon class="st0" points="125.4,13.1 124,13.1 124,14.5 124,48.3 124,49.6 125.4,49.6 132.1,49.6 133.5,49.6 133.5,48.3 
		133.5,14.5 133.5,13.1 132.1,13.1 	"/>
	<polygon class="st0" points="108.8,13.3 108.8,1.4 108.8,0 107.5,0 100.8,0 99.4,0 99.4,1.4 99.4,13.3 90.7,13.3 89.4,13.3 
		89.4,14.6 89.4,21.4 89.4,22.7 90.7,22.7 99.4,22.7 99.4,48.3 99.4,49.6 100.8,49.6 107.5,49.6 108.8,49.6 108.8,48.3 108.8,22.7 
		117.5,22.7 118.9,22.7 118.9,21.3 118.9,14.6 118.9,13.3 117.5,13.3 	"/>
	<path class="st0" d="M81.4,16.4c-1.9-2-4.8-3-8.5-3H46h-1.4v1.4v46.9V63H46h6.7h1.4v-1.4v-12H55h1.4h4.2h12.4c3.7,0,6.5-1,8.4-2.9
		c1.9-1.9,2.9-4.7,2.9-8.4V25h0C84.2,21.2,83.3,18.4,81.4,16.4z M74.1,39.5c-0.5,0.5-1.4,0.8-2.6,0.7h0l-11.2,0h-6.2V22.8h16.4v0
		c1.6,0,2.7,0.4,3.4,1c0.7,0.6,1,1.5,1,2.9V37h0C74.9,38.1,74.6,39,74.1,39.5z"/>
	<path class="st0" d="M36.8,16.3c-2-1.9-4.8-2.9-8.5-2.9H11.5v0c-3.7,0-6.6,1-8.5,2.9C1,18.3,0,21.1,0,24.8l0,0v14.9h0
		c0,3.2,1,5.7,3,7.4c1.9,1.6,4.7,2.5,8.4,2.5l0,0h16.8l0,0c3.7,0,6.5-0.8,8.5-2.4v0c2-1.7,3-4.1,3-7.2h0V24.8l0,0
		C39.7,21.1,38.7,18.3,36.8,16.3z M29.8,39.8c-0.5,0.3-1.5,0.5-2.7,0.5H13.9v0l-0.1,0c-1.7,0-2.9-0.2-3.6-0.7
		c-0.5-0.3-0.8-0.8-0.8-1.3l0,0v0V25.7h0c0-1,0.3-1.8,0.7-2.2c0.5-0.5,1.3-0.7,2.4-0.7v0h14.8v0c1,0,1.8,0.2,2.2,0.7
		c0.4,0.4,0.7,1.2,0.7,2.2v13.4h0C30.2,39.4,30.1,39.6,29.8,39.8z"/>
	<path class="st0" d="M269.7,13.2h-24h-0.9v0.9V21v0.9h0.9h22.9c1.3,0,2.2,0.3,2.8,1c0.6,0.7,0.9,1.7,0.9,3.1h0v0.4l0,14.3h-8.7
		h-8.6h-2.4c-1.4,0-2.5-1.1-2.5-2.5c0-1.4,1.1-2.5,2.5-2.5h11h4V27h-15v0c-6.2,0-11.3,5-11.3,11.3c0,6.2,5,11.2,11.1,11.3v0h0.1
		l0.1,0l0.2,0h5.2v0h22.1h0.9v-0.9V24.2c0-3.6-1-6.4-2.9-8.2C276.2,14.2,273.4,13.2,269.7,13.2z"/>
</g>
</svg>
