<?xml version="1.0" encoding="utf-8"?>
<!-- Generator: Adobe Illustrator 20.0.0, SVG Export Plug-In . SVG Version: 6.00 Build 0)  -->
<svg version="1.1" id="Layer_1" xmlns="http://www.w3.org/2000/svg" xmlns:xlink="http://www.w3.org/1999/xlink" x="0px" y="0px"
	 viewBox="0 0 369.7 744.6" style="enable-background:new 0 0 369.7 744.6;" xml:space="preserve">
<style type="text/css">
	.st0{fill:#0054E8;}
</style>
<g>
	<path class="st0" d="M55.8,744.6c-30.7,0-55.7-24.2-55.7-54L0,54.1C0,24.3,25,0,55.7,0l258.2,0c30.7,0,55.7,24.2,55.7,54l0.1,636.5
		c0,29.8-25,54.1-55.7,54.1L55.8,744.6z M313.9,2L55.7,2C26.1,2,2,25.4,2,54.1l0.1,636.5c0,28.7,24.1,52,53.7,52l258.1,0
		c29.6,0,53.7-23.4,53.7-52.1L367.6,54C367.6,25.3,343.5,2,313.9,2z"/>
</g>
<g>
	<path class="st0" d="M13.3,660v-1L13.2,94.2l343.7,0v1l0.1,564.7L13.3,660z M15.2,96.2L15.3,658l339.7,0L355,96.2L15.2,96.2z"/>
</g>
<g>
	<path class="st0" d="M131.4,62c-4,0-7.3-3.2-7.3-7.1c0-1.9,0.7-3.7,2.1-5c1.4-1.4,3.2-2.1,5.2-2.1c0,0,0,0,0,0c4,0,7.3,3.2,7.3,7.1
		v0C138.7,58.8,135.4,62,131.4,62z M131.4,49.7c-1.4,0-2.8,0.5-3.8,1.5c-1,1-1.5,2.2-1.5,3.6c0,2.8,2.4,5.1,5.3,5.1
		c2.9,0,5.3-2.3,5.3-5.1C136.7,52,134.3,49.7,131.4,49.7C131.4,49.7,131.4,49.7,131.4,49.7z"/>
</g>
<g>
	<path class="st0" d="M164.2,59.2c-2.5,0-4.5-2-4.5-4.4c0-1.2,0.5-2.2,1.3-3.1c0.8-0.8,2-1.3,3.2-1.3c0,0,0,0,0,0l53.4,0
		c2.5,0,4.5,2,4.5,4.4c0,1.2-0.5,2.2-1.3,3.1c-0.9,0.8-2,1.3-3.2,1.3L164.2,59.2z M164.2,52.5c-0.7,0-1.3,0.3-1.8,0.7
		c-0.4,0.4-0.7,1-0.7,1.7c0,1.3,1.1,2.4,2.5,2.4l53.4,0c0.6,0,1.3-0.3,1.8-0.7c0.4-0.4,0.7-1,0.7-1.7c0-1.3-1.1-2.4-2.5-2.4
		L164.2,52.5C164.2,52.5,164.2,52.5,164.2,52.5z"/>
</g>
<g>
	<path class="st0" d="M187.5,727.9c-7.8,0-15.1-3-20.6-8.4c-5.5-5.4-8.5-12.6-8.5-20.2c0-7.6,3-14.8,8.5-20.2
		c5.5-5.4,12.8-8.4,20.6-8.4c0,0,0,0,0,0c16.1,0,29.1,12.8,29.1,28.6C216.6,715.1,203.5,727.9,187.5,727.9z M187.5,672.8
		c-7.2,0-14.1,2.8-19.2,7.8c-5.1,5-7.9,11.7-7.9,18.8c0,7.1,2.8,13.8,7.9,18.8c5.1,5,11.9,7.8,19.2,7.8c15,0,27.1-11.9,27.1-26.6
		C214.6,684.7,202.4,672.8,187.5,672.8C187.5,672.8,187.5,672.8,187.5,672.8z"/>
</g>
<g>
	<g>
		<path class="st0" d="M100.1,229.4v-15.2h-5.5v-2c0.7,0,1.4-0.1,2.1-0.2c0.7-0.1,1.3-0.3,1.8-0.6c0.5-0.3,1-0.7,1.4-1.2
			c0.4-0.5,0.6-1.2,0.8-2h2v21.3H100.1z"/>
	</g>
</g>
<g>
	<g>
		<path class="st0" d="M178.1,212.6c0.3-0.9,0.7-1.7,1.3-2.4c0.6-0.7,1.3-1.2,2.2-1.6c0.9-0.4,1.9-0.6,3-0.6c0.9,0,1.8,0.1,2.6,0.4
			c0.8,0.3,1.5,0.7,2.1,1.2c0.6,0.5,1.1,1.1,1.4,1.9c0.3,0.8,0.5,1.6,0.5,2.6c0,0.9-0.1,1.8-0.4,2.5c-0.3,0.7-0.7,1.4-1.2,1.9
			c-0.5,0.6-1,1.1-1.6,1.5c-0.6,0.5-1.3,0.9-1.9,1.3c-0.7,0.4-1.3,0.8-2,1.2c-0.7,0.4-1.3,0.8-1.8,1.2c-0.6,0.4-1,0.9-1.4,1.4
			c-0.4,0.5-0.6,1.1-0.8,1.8h10.9v2.2h-13.9c0.1-1.3,0.3-2.3,0.7-3.2c0.3-0.9,0.8-1.7,1.3-2.3c0.5-0.7,1.1-1.2,1.8-1.7
			c0.7-0.5,1.4-1,2.1-1.4c0.9-0.6,1.7-1.1,2.4-1.5c0.7-0.5,1.2-0.9,1.7-1.4c0.5-0.5,0.8-1,1-1.6c0.2-0.6,0.3-1.2,0.3-2
			c0-0.6-0.1-1.1-0.3-1.6c-0.2-0.5-0.5-0.9-0.9-1.2c-0.4-0.3-0.8-0.6-1.3-0.8c-0.5-0.2-1-0.3-1.6-0.3c-0.7,0-1.4,0.2-1.9,0.5
			c-0.5,0.3-1,0.7-1.3,1.2c-0.3,0.5-0.6,1.1-0.7,1.7s-0.2,1.3-0.2,1.9h-2.6C177.8,214.5,177.9,213.5,178.1,212.6z"/>
	</g>
</g>
<g>
	<g>
		<path class="st0" d="M267.8,217.2c0.1,0,0.2,0,0.3,0h0.5c0.5,0,1.1-0.1,1.5-0.2c0.5-0.1,0.9-0.4,1.3-0.7s0.7-0.7,0.9-1.1
			c0.2-0.4,0.3-0.9,0.3-1.5c0-1.1-0.4-2-1.1-2.6c-0.7-0.6-1.6-0.9-2.7-0.9c-0.7,0-1.3,0.1-1.8,0.4c-0.5,0.3-0.9,0.6-1.3,1
			s-0.6,0.9-0.7,1.5c-0.2,0.6-0.2,1.2-0.2,1.8h-2.5c0-1,0.2-2,0.5-2.8c0.3-0.8,0.7-1.6,1.2-2.2s1.2-1.1,2-1.4
			c0.8-0.3,1.7-0.5,2.8-0.5c0.9,0,1.8,0.1,2.6,0.3s1.5,0.6,2.1,1c0.6,0.5,1,1.1,1.4,1.8c0.3,0.7,0.5,1.6,0.5,2.6
			c0,1-0.3,1.8-0.8,2.5c-0.6,0.7-1.3,1.3-2.1,1.7v0.1c1.3,0.3,2.3,0.9,2.9,1.8c0.6,0.9,0.9,2.1,0.9,3.3c0,1.1-0.2,2-0.6,2.8
			c-0.4,0.8-0.9,1.5-1.6,2c-0.7,0.5-1.4,0.9-2.3,1.2c-0.9,0.3-1.8,0.4-2.8,0.4c-1.1,0-2.1-0.1-2.9-0.5c-0.9-0.3-1.6-0.7-2.2-1.3
			c-0.6-0.6-1.1-1.3-1.4-2.2c-0.3-0.9-0.5-1.8-0.5-2.9h2.6c0,1.4,0.4,2.5,1.2,3.4c0.8,0.9,1.9,1.3,3.3,1.3c0.6,0,1.2-0.1,1.8-0.3
			c0.6-0.2,1-0.5,1.5-0.8c0.4-0.3,0.8-0.8,1-1.3c0.2-0.5,0.4-1.1,0.4-1.7c0-0.7-0.1-1.2-0.4-1.8c-0.2-0.5-0.6-0.9-1-1.3
			c-0.4-0.3-0.9-0.6-1.4-0.8c-0.6-0.2-1.1-0.3-1.8-0.3c-0.5,0-1,0-1.5,0.1v-2.2C267.7,217.2,267.7,217.2,267.8,217.2z"/>
	</g>
</g>
<g>
	<g>
		<path class="st0" d="M107.4,296.6v2.2h-2.9v5h-2.4v-5h-9.3v-2.5l9.7-13.8h2v14H107.4z M102.1,286.2L102.1,286.2L95,296.6h7.1
			V286.2z"/>
	</g>
</g>
<g>
	<g>
		<path class="st0" d="M182,285.2l-1.1,6.1l0.1,0.1c0.5-0.5,1.1-0.9,1.8-1.2c0.7-0.2,1.5-0.4,2.2-0.4c0.9,0,1.8,0.1,2.7,0.4
			c0.8,0.3,1.6,0.8,2.2,1.4c0.6,0.6,1.1,1.4,1.5,2.3c0.4,0.9,0.5,2,0.5,3.2c0,0.9-0.2,1.8-0.5,2.6c-0.3,0.9-0.8,1.6-1.4,2.3
			c-0.6,0.7-1.4,1.2-2.3,1.6c-0.9,0.4-2,0.6-3.3,0.6c-0.9,0-1.8-0.1-2.6-0.4s-1.5-0.7-2.1-1.2c-0.6-0.5-1.1-1.1-1.5-1.9
			c-0.4-0.8-0.6-1.6-0.6-2.6h2.6c0,0.5,0.2,1,0.4,1.5c0.2,0.5,0.5,0.9,0.9,1.2c0.4,0.4,0.8,0.6,1.4,0.8c0.5,0.2,1.1,0.3,1.8,0.3
			c0.6,0,1.2-0.1,1.7-0.3c0.5-0.2,1-0.5,1.4-0.9c0.4-0.4,0.7-0.9,1-1.6c0.2-0.6,0.4-1.4,0.4-2.2c0-0.7-0.1-1.3-0.3-1.9
			c-0.2-0.6-0.6-1.1-1-1.5c-0.4-0.4-0.9-0.8-1.5-1c-0.6-0.2-1.2-0.4-2-0.4c-0.8,0-1.6,0.2-2.2,0.6c-0.7,0.4-1.2,0.9-1.7,1.5
			l-2.2-0.1l2-11h10.5v2.2H182z"/>
	</g>
</g>
<g>
	<g>
		<path class="st0" d="M272.3,285.7c-0.6-0.6-1.4-0.9-2.5-0.9c-1.1,0-2,0.3-2.6,0.8c-0.7,0.5-1.2,1.2-1.5,2s-0.6,1.7-0.8,2.6
			c-0.1,0.9-0.2,1.8-0.2,2.6l0.1,0.1c0.6-1,1.3-1.7,2.2-2.1c0.9-0.4,1.9-0.7,3.1-0.7c1,0,1.9,0.2,2.7,0.5s1.5,0.8,2,1.5
			c0.5,0.6,1,1.4,1.3,2.2c0.3,0.8,0.4,1.8,0.4,2.7c0,0.8-0.1,1.6-0.4,2.4c-0.2,0.8-0.6,1.6-1.2,2.3c-0.6,0.7-1.3,1.3-2.2,1.7
			c-0.9,0.5-2,0.7-3.4,0.7c-1.6,0-2.9-0.3-3.8-1c-1-0.6-1.7-1.5-2.2-2.5c-0.5-1-0.9-2.1-1-3.3c-0.2-1.2-0.3-2.4-0.3-3.5
			c0-1.5,0.1-2.9,0.4-4.2c0.2-1.4,0.7-2.6,1.3-3.6s1.4-1.9,2.4-2.6c1-0.6,2.3-1,3.8-1c1.8,0,3.2,0.5,4.2,1.4c1,0.9,1.6,2.3,1.8,4
			h-2.6C273.3,287,272.9,286.3,272.3,285.7z M267.7,292.8c-0.5,0.3-1,0.6-1.4,1c-0.4,0.4-0.7,0.9-0.9,1.5c-0.2,0.6-0.3,1.2-0.3,1.9
			c0,0.7,0.1,1.3,0.3,1.9c0.2,0.6,0.5,1.1,0.9,1.5c0.4,0.4,0.8,0.8,1.4,1c0.5,0.3,1.2,0.4,1.9,0.4c0.7,0,1.3-0.1,1.8-0.4
			c0.5-0.2,1-0.6,1.3-1c0.4-0.4,0.6-0.9,0.8-1.5c0.2-0.6,0.3-1.2,0.3-1.8c0-0.7-0.1-1.3-0.3-1.9c-0.2-0.6-0.4-1.1-0.8-1.5
			c-0.4-0.4-0.8-0.8-1.3-1c-0.5-0.3-1.2-0.4-1.9-0.4C268.9,292.4,268.2,292.5,267.7,292.8z"/>
	</g>
</g>
<g>
	<g>
		<path class="st0" d="M104.2,363.4c-0.9,1.5-1.8,3-2.5,4.7s-1.3,3.4-1.8,5.1c-0.5,1.8-0.7,3.5-0.8,5.1h-2.9
			c0.1-1.8,0.4-3.6,0.9-5.3c0.5-1.7,1.1-3.3,1.8-4.9c0.7-1.6,1.6-3.1,2.6-4.5c1-1.4,2-2.7,3.1-3.9H93.5v-2.4h13.8v2.2
			C106.2,360.7,105.1,361.9,104.2,363.4z"/>
	</g>
</g>
<g>
	<g>
		<path class="st0" d="M179,360.2c0.3-0.7,0.8-1.2,1.4-1.7s1.2-0.8,2-1.1c0.8-0.2,1.5-0.4,2.4-0.4c1.2,0,2.1,0.2,3,0.5
			c0.8,0.3,1.5,0.7,2,1.2c0.5,0.5,0.9,1.1,1.1,1.7c0.2,0.6,0.4,1.3,0.4,2c0,1-0.3,1.8-0.8,2.6c-0.5,0.8-1.2,1.4-2.1,1.8
			c1.3,0.4,2.2,1.1,2.8,2s0.9,2,0.9,3.3c0,1-0.2,2-0.6,2.8s-0.9,1.5-1.5,2c-0.6,0.6-1.4,1-2.2,1.2s-1.8,0.4-2.8,0.4
			c-1,0-2-0.1-2.9-0.4c-0.9-0.3-1.6-0.7-2.3-1.2c-0.7-0.5-1.2-1.2-1.5-2s-0.6-1.8-0.6-2.8c0-1.3,0.3-2.4,1-3.3
			c0.6-0.9,1.6-1.6,2.8-2c-0.9-0.4-1.6-0.9-2.2-1.8c-0.5-0.8-0.8-1.7-0.8-2.7C178.4,361.6,178.6,360.8,179,360.2z M181.7,375.4
			c0.9,0.7,1.9,1.1,3.3,1.1c0.6,0,1.2-0.1,1.8-0.3c0.5-0.2,1-0.5,1.4-0.9c0.4-0.4,0.7-0.8,0.9-1.3s0.3-1.1,0.3-1.6
			c0-0.6-0.1-1.1-0.3-1.6c-0.2-0.5-0.5-0.9-0.9-1.3c-0.4-0.4-0.9-0.6-1.4-0.9c-0.5-0.2-1.1-0.3-1.7-0.3c-0.6,0-1.2,0.1-1.8,0.3
			c-0.6,0.2-1,0.5-1.4,0.8c-0.4,0.4-0.7,0.8-1,1.3c-0.2,0.5-0.3,1.1-0.3,1.7C180.4,373.6,180.8,374.6,181.7,375.4z M181.4,364.1
			c0.2,0.4,0.5,0.8,0.8,1.1c0.3,0.3,0.7,0.5,1.2,0.6c0.5,0.1,0.9,0.2,1.5,0.2c1,0,1.9-0.3,2.5-0.9c0.7-0.6,1-1.4,1-2.5
			s-0.3-1.9-1-2.4c-0.7-0.5-1.5-0.8-2.6-0.8c-0.5,0-1,0.1-1.4,0.2c-0.5,0.1-0.9,0.4-1.2,0.6c-0.3,0.3-0.6,0.6-0.8,1
			c-0.2,0.4-0.3,0.9-0.3,1.4C181.1,363.2,181.2,363.7,181.4,364.1z"/>
	</g>
</g>
<g>
	<g>
		<path class="st0" d="M266.3,375.6c0.7,0.6,1.6,0.8,2.6,0.8c1.6,0,2.7-0.7,3.5-2c0.8-1.4,1.2-3.4,1.3-6.2l-0.1-0.1
			c-0.5,0.9-1.2,1.6-2,2.1c-0.9,0.5-1.8,0.8-2.9,0.8c-1.1,0-2-0.2-2.9-0.5c-0.8-0.3-1.5-0.8-2.1-1.5c-0.6-0.6-1-1.4-1.3-2.2
			c-0.3-0.9-0.4-1.8-0.4-2.9c0-1,0.2-2,0.5-2.8c0.3-0.8,0.8-1.6,1.4-2.2c0.6-0.6,1.4-1.1,2.2-1.4s1.8-0.5,2.8-0.5
			c1,0,1.9,0.2,2.8,0.5c0.9,0.3,1.6,0.8,2.3,1.6c0.7,0.8,1.2,1.8,1.6,3.1c0.4,1.3,0.6,3,0.6,5c0,3.7-0.6,6.5-1.8,8.5
			c-1.2,2-3,3-5.6,3c-1.8,0-3.3-0.5-4.4-1.4c-1.2-0.9-1.9-2.3-2-4.1h2.5C265.1,374.2,265.6,375.1,266.3,375.6z M273,362.3
			c-0.2-0.6-0.5-1.1-0.8-1.5c-0.4-0.5-0.8-0.8-1.4-1.1c-0.5-0.3-1.2-0.4-1.9-0.4c-0.8,0-1.4,0.1-1.9,0.4c-0.5,0.3-1,0.7-1.3,1.1
			c-0.3,0.5-0.6,1-0.7,1.6c-0.1,0.6-0.2,1.2-0.2,1.9c0,0.6,0.1,1.1,0.3,1.7s0.5,1,0.9,1.4s0.8,0.8,1.3,1c0.5,0.3,1.1,0.4,1.7,0.4
			c0.7,0,1.3-0.1,1.8-0.4c0.5-0.2,1-0.6,1.4-1c0.4-0.4,0.7-0.9,0.9-1.5c0.2-0.6,0.3-1.2,0.3-1.8C273.3,363.5,273.2,362.9,273,362.3z
			"/>
	</g>
</g>
<g>
	<g>
		<g>
			<path class="st0" d="M106.6,439l1,2.3l-5.2,1.8l3.2,4.4l-2,1.5l-3.3-4.6l-3.1,4.6l-2.2-1.5l3.1-4.4l-5.1-1.8l0.9-2.3l5.1,1.9
				v-5.4h2.5v5.4L106.6,439z"/>
		</g>
	</g>
</g>
<g>
	<g>
		<path class="st0" d="M177.8,440c0-0.8,0.1-1.7,0.3-2.5c0.2-0.8,0.4-1.6,0.7-2.3c0.3-0.7,0.7-1.4,1.2-1.9c0.5-0.5,1.2-1,2-1.3
			c0.8-0.3,1.7-0.5,2.8-0.5c1.1,0,2,0.2,2.8,0.5c0.8,0.3,1.4,0.8,2,1.3c0.5,0.5,0.9,1.2,1.2,1.9c0.3,0.7,0.5,1.5,0.7,2.3
			c0.2,0.8,0.3,1.6,0.3,2.5c0,0.8,0.1,1.6,0.1,2.4c0,0.8,0,1.6-0.1,2.4c0,0.8-0.1,1.7-0.3,2.5c-0.2,0.8-0.4,1.6-0.7,2.3
			c-0.3,0.7-0.7,1.3-1.2,1.9c-0.5,0.5-1.2,1-2,1.3c-0.8,0.3-1.7,0.5-2.9,0.5c-1.1,0-2-0.2-2.8-0.5c-0.8-0.3-1.4-0.7-2-1.3
			c-0.5-0.5-0.9-1.2-1.2-1.9c-0.3-0.7-0.5-1.5-0.7-2.3c-0.2-0.8-0.3-1.6-0.3-2.5c0-0.8-0.1-1.7-0.1-2.4
			C177.8,441.6,177.8,440.8,177.8,440z M180.5,445c0,1,0.2,1.9,0.5,2.8s0.7,1.6,1.3,2.2c0.6,0.6,1.4,0.9,2.5,0.9s1.9-0.3,2.5-0.9
			s1-1.3,1.3-2.2s0.4-1.8,0.5-2.8c0-1,0.1-1.9,0.1-2.7c0-0.5,0-1.1,0-1.7c0-0.6-0.1-1.3-0.1-1.9c-0.1-0.6-0.2-1.2-0.4-1.8
			c-0.2-0.6-0.4-1.1-0.8-1.6c-0.3-0.5-0.7-0.8-1.2-1.1c-0.5-0.3-1.1-0.4-1.8-0.4c-0.7,0-1.3,0.1-1.8,0.4c-0.5,0.3-0.9,0.6-1.2,1.1
			c-0.3,0.4-0.6,1-0.8,1.6c-0.2,0.6-0.3,1.2-0.4,1.8s-0.1,1.3-0.1,1.9c0,0.6,0,1.2,0,1.7C180.5,443.2,180.5,444.1,180.5,445z"/>
	</g>
</g>
<g>
	<g>
		<path class="st0" d="M263.5,445.7V444h2.6l0.5-3.6h-2.4v-1.6h2.7l0.7-4.9h1.7l-0.7,4.9h3l0.7-4.9h1.7l-0.7,4.9h2.1v1.6h-2.4
			l-0.5,3.6h2.2v1.6h-2.4l-0.7,4.9h-1.7l0.7-4.9h-3l-0.7,4.9h-1.7l0.7-4.9H263.5z M267.7,444h3l0.5-3.6h-3L267.7,444z"/>
	</g>
</g>
<g>
	<g>
		<path class="st0" d="M100.3,250c-17.2,0-31.2-14-31.2-31.2s14-31.2,31.2-31.2s31.2,14,31.2,31.2S117.5,250,100.3,250z
			 M100.3,189.5c-16.1,0-29.2,13.1-29.2,29.2S84.2,248,100.3,248s29.2-13.1,29.2-29.2S116.4,189.5,100.3,189.5z"/>
	</g>
	<g>
		<path class="st0" d="M184.8,250c-17.2,0-31.2-14-31.2-31.2s14-31.2,31.2-31.2s31.2,14,31.2,31.2S202.1,250,184.8,250z
			 M184.8,189.5c-16.1,0-29.2,13.1-29.2,29.2s13.1,29.2,29.2,29.2s29.2-13.1,29.2-29.2S201,189.5,184.8,189.5z"/>
	</g>
	<g>
		<path class="st0" d="M269.4,250c-17.2,0-31.2-14-31.2-31.2s14-31.2,31.2-31.2s31.2,14,31.2,31.2S286.6,250,269.4,250z
			 M269.4,189.5c-16.1,0-29.2,13.1-29.2,29.2s13.1,29.2,29.2,29.2s29.2-13.1,29.2-29.2S285.5,189.5,269.4,189.5z"/>
	</g>
	<g>
		<path class="st0" d="M100.3,324.5c-17.2,0-31.2-14-31.2-31.2s14-31.2,31.2-31.2s31.2,14,31.2,31.2S117.5,324.5,100.3,324.5z
			 M100.3,264c-16.1,0-29.2,13.1-29.2,29.2s13.1,29.2,29.2,29.2s29.2-13.1,29.2-29.2S116.4,264,100.3,264z"/>
	</g>
	<g>
		<path class="st0" d="M184.8,324.5c-17.2,0-31.2-14-31.2-31.2s14-31.2,31.2-31.2s31.2,14,31.2,31.2S202.1,324.5,184.8,324.5z
			 M184.8,264c-16.1,0-29.2,13.1-29.2,29.2s13.1,29.2,29.2,29.2s29.2-13.1,29.2-29.2S201,264,184.8,264z"/>
	</g>
	<g>
		<path class="st0" d="M269.4,324.5c-17.2,0-31.2-14-31.2-31.2s14-31.2,31.2-31.2s31.2,14,31.2,31.2S286.6,324.5,269.4,324.5z
			 M269.4,264c-16.1,0-29.2,13.1-29.2,29.2s13.1,29.2,29.2,29.2s29.2-13.1,29.2-29.2S285.5,264,269.4,264z"/>
	</g>
	<g>
		<path class="st0" d="M100.3,399c-17.2,0-31.2-14-31.2-31.2s14-31.2,31.2-31.2s31.2,14,31.2,31.2S117.5,399,100.3,399z
			 M100.3,338.5c-16.1,0-29.2,13.1-29.2,29.2S84.2,397,100.3,397s29.2-13.1,29.2-29.2S116.4,338.5,100.3,338.5z"/>
	</g>
	<g>
		<path class="st0" d="M184.8,399c-17.2,0-31.2-14-31.2-31.2s14-31.2,31.2-31.2s31.2,14,31.2,31.2S202.1,399,184.8,399z
			 M184.8,338.5c-16.1,0-29.2,13.1-29.2,29.2s13.1,29.2,29.2,29.2s29.2-13.1,29.2-29.2S201,338.5,184.8,338.5z"/>
	</g>
	<g>
		<path class="st0" d="M269.4,399c-17.2,0-31.2-14-31.2-31.2s14-31.2,31.2-31.2s31.2,14,31.2,31.2S286.6,399,269.4,399z
			 M269.4,338.5c-16.1,0-29.2,13.1-29.2,29.2s13.1,29.2,29.2,29.2s29.2-13.1,29.2-29.2S285.5,338.5,269.4,338.5z"/>
	</g>
	<g>
		<path class="st0" d="M100.3,473.5c-17.2,0-31.2-14-31.2-31.2s14-31.2,31.2-31.2s31.2,14,31.2,31.2S117.5,473.5,100.3,473.5z
			 M100.3,413c-16.1,0-29.2,13.1-29.2,29.2s13.1,29.2,29.2,29.2s29.2-13.1,29.2-29.2S116.4,413,100.3,413z"/>
	</g>
	<g>
		<path class="st0" d="M184.8,473.5c-17.2,0-31.2-14-31.2-31.2s14-31.2,31.2-31.2s31.2,14,31.2,31.2S202.1,473.5,184.8,473.5z
			 M184.8,413c-16.1,0-29.2,13.1-29.2,29.2s13.1,29.2,29.2,29.2s29.2-13.1,29.2-29.2S201,413,184.8,413z"/>
	</g>
	<g>
		<path class="st0" d="M269.4,473.5c-17.2,0-31.2-14-31.2-31.2s14-31.2,31.2-31.2s31.2,14,31.2,31.2S286.6,473.5,269.4,473.5z
			 M269.4,413c-16.1,0-29.2,13.1-29.2,29.2s13.1,29.2,29.2,29.2s29.2-13.1,29.2-29.2S285.5,413,269.4,413z"/>
	</g>
	<g>
		<path class="st0" d="M184.8,557.1c-17.2,0-31.2-14-31.2-31.2s14-31.2,31.2-31.2s31.2,14,31.2,31.2S202.1,557.1,184.8,557.1z
			 M184.8,496.6c-16.1,0-29.2,13.1-29.2,29.2s13.1,29.2,29.2,29.2s29.2-13.1,29.2-29.2S201,496.6,184.8,496.6z"/>
	</g>
</g>
<g>
	<g>
		<g>
			<path class="st0" d="M197.2,533.4l-4-4c-0.8-0.8-2.1-0.8-2.9,0.1l-2,2c-0.1-0.1-0.3-0.1-0.4-0.2c-1.3-0.7-3-1.7-4.8-3.5
				c-1.8-1.8-2.8-3.6-3.5-4.9c-0.1-0.1-0.1-0.3-0.2-0.4l1.4-1.3l0.7-0.7c0.8-0.8,0.8-2.1,0.1-2.9l-4-4c-0.8-0.8-2.1-0.8-2.9,0.1
				l-1.1,1.1l0,0c-0.4,0.5-0.7,1-0.9,1.6c-0.2,0.6-0.4,1.1-0.4,1.7c-0.5,4.4,1.5,8.4,6.9,13.8c7.5,7.5,13.5,6.9,13.8,6.9
				c0.6-0.1,1.1-0.2,1.7-0.4c0.6-0.2,1.2-0.5,1.6-0.9l0,0l1.1-1.1C198,535.5,198,534.2,197.2,533.4z"/>
		</g>
	</g>
</g>
</svg>
