<?xml version="1.0" encoding="utf-8"?>
<!-- Generator: Adobe Illustrator 20.0.0, SVG Export Plug-In . SVG Version: 6.00 Build 0)  -->
<svg version="1.1" id="Layer_1" xmlns="http://www.w3.org/2000/svg" xmlns:xlink="http://www.w3.org/1999/xlink" x="0px" y="0px"
	 viewBox="0 0 65.9 71.1" style="enable-background:new 0 0 65.9 71.1;" xml:space="preserve">
<style type="text/css">
	.st0{fill-rule:evenodd;clip-rule:evenodd;fill:#FFFFFF;}
</style>
<g>
	<path class="st0" d="M28.7,39.7h-1.5H7.6H1.3c-0.1,0-0.2,0.1-0.2,0.3L1,44.7C1,44.9,1.1,45,1.3,45h6.2h19.8h1.5V39.7z"/>
	<path class="st0" d="M28.7,32.2L27.1,32l-12.2-1.5L10.4,30c-0.1,0-0.2,0-0.3,0.1l-6.7,3.2c-0.1,0.1-0.1,0.2,0,0.3l10.1,1.2
		l13.3,1.6l1.9,0.2V32.2z"/>
	<path class="st0" d="M28.7,24.3l-0.5-0.1l-5.8-1.3l-3.8-0.9c-0.1,0-0.2,0-0.2,0l-7.9,1.9c-0.1,0-0.1,0.2,0,0.3l9,2.1l7.8,1.8
		l1.5,0.4V24.3z"/>
	<path class="st0" d="M28.7,18.6l-1.1-0.7c-0.1,0-0.2-0.1-0.3-0.1l-6.2,0.3c-0.2,0-0.2,0.2,0,0.3l7.6,2.6v-1.7v-0.6V18.6z"/>
	<path class="st0" d="M29.4,54.7c-0.1,0-0.1,0-0.2,0l-12.9,7.9l-3.8,2.5c-0.2,0.1-0.1,0.3,0,0.4l11.1,4.6c0.2,0.1,0.4,0,0.5-0.2
		l2.2-3.5l6.4-10.1c0-0.1,0-0.1-0.1-0.2L29.4,54.7z"/>
	<path class="st0" d="M28.7,47.6l-1.2,0.3l-16.2,3.4L3,53.1c-0.2,0-0.3,0.3-0.1,0.4l8.1,5.2c0.1,0.1,0.2,0.1,0.3,0l5.7-2.1l11.6-4.5
		l0.1-0.1v-0.2v-1.1V47.6z"/>
	<path class="st0" d="M37.2,31.5h1.5h19.6h6.1c0.1,0,0.2-0.1,0.2-0.3l0.3-4.8c0-0.2-0.1-0.3-0.2-0.3h-6.2H38.6h-1.5V31.5z"/>
	<path class="st0" d="M37.2,39l1.6,0.2L51,40.7l4.5,0.5c0.1,0,0.2,0,0.3-0.1l6.7-3.2c0.1-0.1,0.1-0.2,0-0.3l-10.1-1.2l-13.3-1.6
		l-1.9-0.2V39z"/>
	<path class="st0" d="M37.2,47l0.5,0.1l5.8,1.3l3.8,0.9c0.1,0,0.2,0,0.2,0l7.9-1.9c0.1,0,0.1-0.2,0-0.3l-9-2.1l-7.8-1.8l-1.5-0.4V47
		z"/>
	<path class="st0" d="M37.2,52.6l1.1,0.7c0.1,0,0.2,0.1,0.3,0.1l6.2-0.3c0.2,0,0.2-0.2,0-0.3l-7.6-2.6v1.4v0.9V52.6z"/>
	<path class="st0" d="M36.5,16.6c0.1,0,0.1,0,0.2,0l12.9-7.9l3.8-2.5c0.2-0.1,0.1-0.3,0-0.4L42.3,1.1c-0.2-0.1-0.4,0-0.5,0.2
		l-2.2,3.5l-6.4,10.1c0,0.1,0,0.1,0.1,0.2L36.5,16.6z"/>
	<path class="st0" d="M37.2,23.7l1.2-0.3L54.6,20l8.4-1.8c0.2,0,0.3-0.3,0.1-0.4l-8.1-5.2c-0.1-0.1-0.2-0.1-0.3,0l-5.7,2.1
		l-11.6,4.5l-0.1,0.1v0.2v1.1V23.7z"/>
</g>
</svg>
